<?xml version="1.0" encoding="utf-8"?>
<!-- Generator: Adobe Illustrator 15.1.0, SVG Export Plug-In . SVG Version: 6.00 Build 0)  -->
<!DOCTYPE svg PUBLIC "-//W3C//DTD SVG 1.1//EN" "http://www.w3.org/Graphics/SVG/1.1/DTD/svg11.dtd">
<svg version="1.1" id="Layer_1" xmlns="http://www.w3.org/2000/svg" xmlns:xlink="http://www.w3.org/1999/xlink" x="0px" y="0px"
	 width="595.28px" height="201.875px" viewBox="0 0 595.28 201.875" enable-background="new 0 0 595.28 201.875"
	 xml:space="preserve">
<path fill="#D41216" d="M17.339,140.132h23.076c10.364,0,17.931,4.42,14.727,15.597c-0.722,2.512-3.938,12.477-16.779,14.813
	l-0.049,0.175c4.45,0.521,5.555,2.945,5.838,10.138l0.824,19.755H29.473l-0.222-16.203c-0.072-8.23-2.057-8.23-7.465-8.23
	l-7.005,24.434H0L17.339,140.132z M24.176,165.954h4.597c5.679,0,9.699-3.641,10.94-7.973c0.721-2.511,1.373-7.624-6.558-7.624
	h-4.507L24.176,165.954z"/>
<polygon fill="#D41216" points="70.782,140.133 107.105,140.133 104.076,150.704 81.992,150.704 78.119,164.217 99.119,164.217 
	96.087,174.791 75.087,174.791 70.713,190.04 93.879,190.04 90.849,200.61 53.443,200.61 "/>
<path fill="#D41216" d="M148.279,152.435c-3.017-1.732-7.58-3.116-11.541-3.116c-4.778,0-8.979,2.078-10.271,6.583
	c-3.155,11.004,23.097,5.893,16.938,27.381c-3.279,11.438-14.732,18.368-27.261,18.368c-7.658,0-13.745-1.733-16.224-2.515
	l4.189-11.783c3.947,1.646,7.224,3.728,12.721,3.728c4.687,0,9.841-2.252,11.258-7.191c3.353-11.696-23.074-5.979-16.889-27.554
	c0.52-1.817,5.666-17.243,26.758-17.243c5.768,0,9.098,0.953,14.186,2.082L148.279,152.435z"/>
<polygon fill="#D41216" points="165.954,140.133 180.733,140.133 163.395,200.61 148.612,200.61 "/>
<polygon fill="#D41216" points="192.628,140.133 207.412,140.133 193.2,189.694 214.02,189.694 210.891,200.61 175.291,200.61 "/>
<polygon fill="#D41216" points="235.977,140.133 250.76,140.133 233.418,200.61 218.64,200.61 "/>
<polygon fill="#D41216" points="262.655,140.133 298.978,140.133 295.947,150.704 273.863,150.704 269.989,164.217 290.988,164.217 
	287.957,174.791 266.958,174.791 262.584,190.04 285.75,190.04 282.721,200.61 245.313,200.61 "/>
<polygon fill="#D41216" points="309.158,140.133 326.46,140.133 332.737,182.067 332.916,182.067 344.938,140.133 357.918,140.133 
	340.578,200.61 323.096,200.61 317.521,156.856 317.342,156.856 304.796,200.61 291.817,200.61 "/>
<path fill="#D41216" d="M407.977,153.823c-1.906-1.212-5.041-3.465-11.804-3.465c-9.919,0-18.437,7.71-21.937,19.926
	c-3.38,11.783,1.454,19.756,10.828,19.756c7.213,0,12.193-2.6,13.807-3.206l-3.082,12.649c-2.75,0.783-8.376,2.167-16.395,2.167
	c-17.217,0-25.741-12.392-20.254-31.54c6.362-22.182,24.399-31.018,37.199-31.018c9.372,0,13.574,1.994,15.736,2.946
	L407.977,153.823z"/>
<polygon fill="#D41216" points="421.27,140.133 457.594,140.133 454.564,150.704 432.48,150.704 428.605,164.217 449.604,164.217 
	446.573,174.791 425.574,174.791 421.201,190.04 444.365,190.04 441.336,200.61 403.931,200.61 "/>
<path d="M452.527,187.958c6.175,2.34,8.121,3.121,11.633,3.121c8.746,0,12.399-5.2,13.269-8.233c2.208-7.71-3.771-8.23-8.908-8.23
	h-4.325l2.832-9.877c5.405,0,15.407,0,17.526-7.365c1.489-5.196-2.298-7.709-7.167-7.709c-4.232,0-8.881,1.73-13.191,2.947
	l2.358-10.744c7.579-1.907,13.054-2.776,19.454-2.776c8.202,0,16.662,4.767,13.355,16.29c-2.11,7.365-9.179,11.264-16.401,13.516
	l-0.052,0.175c6.514,0.866,11.785,5.112,8.929,15.077c-2.783,9.701-13.76,17.501-29.628,17.501c-2.976,0-10.89-1.3-13.494-2.6
	L452.527,187.958z"/>
<path d="M545.664,152.003c-2.314-1.039-5.896-2.687-9.685-2.687c-10.814,0-15.521,9.185-18.431,17.764h0.179
	c5.537-4.854,10.504-5.2,12.217-5.2c8.927,0,14.795,7.191,10.993,20.447c-1.069,3.725-7.612,19.324-25.368,19.324
	c-17.758,0-16.881-15.945-13.127-29.028c4.886-17.068,15.558-33.533,34.31-33.533c5.046,0,8.377,0.956,12.73,2.428L545.664,152.003z
	 M513.773,182.76c-0.498,1.732-2.658,9.273,3.741,9.273c5.858,0,8.485-7.281,9.379-10.397c0.771-2.686,2.104-9.531-3.666-9.531
	C516.827,172.105,514.692,179.555,513.773,182.76"/>
<path d="M579.555,139.092c16.765,0,16.606,14.384,11.765,31.277c-4.846,16.897-12.938,31.28-29.697,31.28
	c-16.769,0-16.607-14.383-11.767-31.28C554.701,153.477,562.793,139.092,579.555,139.092 M564.451,191.773
	c5.679,0,9.656-9.791,12.987-21.403c3.327-11.609,4.962-21.398-0.717-21.398c-5.677,0-9.654,9.789-12.985,21.398
	C560.407,181.982,558.774,191.773,564.451,191.773"/>
<g>
	<path fill="#D41216" d="M0.524,76.716h72.104l-4.192,5.869H0.524V76.716z"/>
	<path fill="#D41216" d="M594.756,82.585h-88.244l4.402-5.869h83.842V82.585z"/>
	<path fill="#D41216" d="M0.524,65.816h80.278l-4.401,5.869H0.524V65.816z"/>
	<path fill="#D41216" d="M0.524,54.917h88.453l-4.401,5.869H0.524V54.917z"/>
	<path fill="#D41216" d="M594.756,71.686h-80.069l4.402-5.869h75.667V71.686z"/>
	<path fill="#D41216" d="M527.263,54.917h67.493v5.869h-71.895L527.263,54.917z"/>
	<path fill="#D41216" d="M78.288,82.585l38.148-50.935c0,0,42.34,0,47.37,0c5.24,0,5.24,1.887,2.516,5.45
		c-2.516,3.354-6.917,9.432-9.642,12.996c-1.258,1.887-3.773,5.03,4.191,5.03c8.595,0,63.302,0,63.302,0
		c-5.24,7.127-22.428,27.668-53.03,27.668C146.41,82.585,78.288,82.585,78.288,82.585z"/>
	<path fill="#D41216" d="M296.697,54.917l-20.751,27.668h-54.498l20.751-27.668H296.697L296.697,54.917z"/>
	<path fill="#D41216" d="M375.509,54.917l-20.751,27.668H300.26l20.751-27.668H375.509z"/>
	<path fill="#D41216" d="M393.325,54.917c0,0-3.982,5.449-5.869,7.965c-6.917,9.013-0.838,19.703,21.59,19.703
		c25.781,0,87.615,0,87.615,0l20.75-27.668H393.325z"/>
	<path fill="#D41216" d="M105.117,0L86.043,25.362c0,0,98.306,0,103.546,0s5.24,1.886,2.515,5.45
		c-2.515,3.354-6.917,9.432-9.642,12.996c-1.258,1.677-3.772,5.03,4.192,5.03c8.594,0,42.34,0,42.34,0s6.917-9.223,12.576-16.768
		c7.756-10.271,0.629-31.86-27.039-31.86C189.589,0,105.117,0,105.117,0z"/>
	<path fill="#D41216" d="M380.329,48.628H246.811L283.282,0h54.497l-20.751,27.877h24.314L362.304,0h54.497L380.329,48.628
		L380.329,48.628z"/>
	<path fill="#D41216" d="M492.259,0l-36.471,48.628h-57.852L434.408,0H492.259z"/>
</g>
</svg>
